# xmcd
#
# Track frame offsets:
#	150
#	18363
#	29571
#	46462
#	60615
#	79539
#	94744
#	110576
#	126784
#	143291
#	162044
#	180383
#	191576
#	208774
#	222922
#	241988
#	257275
#	273254
#	289465
#	306138
#
# Disc length: 4332 seconds
#
# Revision: 1
# Processed by: cddbd v1.5.2PL0 Copyright (c) Steve Scherf et al.
# Submitted via: audiograbber 1.83.01
#
DISCID=1410ea14
DTITLE=Playalong for Clarinet - No.1 HITS
DYEAR=1999
DGENRE=Instrumental
TTITLE0=A Whiter Shade Of Pale
TTITLE1=A Hard Day's Night
TTITLE2=Dancing Queen
TTITLE3=Every Breath You Take
TTITLE4=He Ain't Heavy
TTITLE5=Eternal Flame
TTITLE6=Mull Of Kintyre
TTITLE7=Show Me Heaven
TTITLE8=Unchained Melody
TTITLE9=No Matter Why
TTITLE10=A Whiter Shade Of Pale
TTITLE11=A Hard Day's Night
TTITLE12=Dancing Queen
TTITLE13=Every Breath You Take
TTITLE14=He Ain't Heavy
TTITLE15=Eternal Flame
TTITLE16=Mull Of Kintyre
TTITLE17=Show Me Heaven
TTITLE18=Unchained Melody
TTITLE19=No Matter Why
EXTD=
EXTT0=
EXTT1=
EXTT2=
EXTT3=
EXTT4=
EXTT5=
EXTT6=
EXTT7=
EXTT8=
EXTT9=
EXTT10=
EXTT11=
EXTT12=
EXTT13=
EXTT14=
EXTT15=
EXTT16=
EXTT17=
EXTT18=
EXTT19=
PLAYORDER=
